<?xml version="1.0" standalone="no"?>
<!DOCTYPE svg PUBLIC "-//W3C//DTD SVG 20010904//EN"
 "http://www.w3.org/TR/2001/REC-SVG-20010904/DTD/svg10.dtd">
<svg version="1.0" xmlns="http://www.w3.org/2000/svg"
 width="1366.000000pt" height="1366.000000pt" viewBox="0 0 1366.000000 1366.000000"
 preserveAspectRatio="xMidYMid meet">
<metadata>
Created by potrace 1.14, written by Peter Selinger 2001-2017
</metadata>
<g transform="translate(0.000000,1366.000000) scale(0.100000,-0.100000)"
fill="#000000" stroke="none">
<path d="M6615 13110 c-105 -16 -131 -21 -190 -36 -452 -113 -840 -431 -1042
-854 -35 -74 -158 -413 -167 -465 -2 -10 -147 -459 -191 -590 -12 -38 -62
-191 -110 -340 -47 -148 -92 -286 -98 -305 -6 -19 -12 -37 -12 -40 -1 -3 -23
-70 -49 -150 -26 -80 -49 -149 -50 -155 -2 -5 -6 -17 -9 -25 -9 -25 -79 -240
-81 -253 -2 -7 -6 -20 -10 -29 -4 -9 -9 -22 -10 -30 -3 -16 -63 -203 -77 -239
l-10 -26 -1324 2 c-729 1 -1355 -2 -1392 -6 -111 -12 -158 -20 -220 -35 -32
-8 -67 -16 -78 -19 -12 -3 -45 -13 -75 -24 -437 -153 -770 -463 -952 -890 -22
-51 -41 -98 -43 -105 -1 -6 -5 -18 -8 -26 -9 -21 -45 -159 -52 -195 -2 -16 -7
-39 -9 -50 -24 -125 -25 -398 -2 -535 58 -337 204 -619 446 -860 91 -91 170
-155 380 -307 146 -105 459 -331 695 -502 237 -170 435 -314 440 -318 14 -12
185 -135 215 -155 23 -16 268 -193 414 -300 32 -24 75 -55 96 -69 l37 -25 -52
-160 c-29 -87 -67 -202 -84 -254 -17 -52 -33 -102 -36 -110 -2 -8 -22 -71 -45
-140 -148 -452 -335 -1023 -365 -1120 -20 -63 -42 -131 -50 -150 -8 -19 -50
-147 -94 -284 -81 -249 -115 -367 -126 -441 -3 -22 -9 -64 -14 -94 -5 -30 -9
-117 -9 -195 0 -170 11 -267 49 -401 11 -38 21 -77 23 -86 27 -110 171 -381
257 -485 138 -164 236 -254 388 -356 192 -128 404 -216 612 -253 19 -4 48 -9
64 -12 50 -9 357 -11 415 -3 78 12 119 19 165 32 22 5 50 12 62 14 89 16 313
115 429 189 65 42 808 579 838 607 11 10 23 18 27 18 4 0 14 6 21 13 7 7 195
145 418 307 223 162 497 362 610 445 113 84 217 159 232 169 l26 17 200 -148
c110 -81 287 -211 393 -288 107 -76 196 -142 199 -145 3 -3 21 -17 40 -30 19
-13 141 -101 270 -195 1125 -821 1059 -775 1219 -855 85 -42 287 -114 351
-124 19 -3 47 -8 61 -11 95 -18 173 -23 314 -21 88 2 171 7 185 10 14 4 41 8
60 11 19 2 44 6 55 8 43 10 111 28 125 34 8 3 21 7 27 9 40 8 171 63 250 105
330 173 575 424 728 744 49 101 108 269 121 341 30 177 33 210 30 374 -2 96
-6 189 -10 205 -3 17 -9 46 -13 65 -3 19 -7 37 -8 40 0 3 -4 23 -9 45 -4 22
-25 92 -46 155 -20 63 -90 277 -154 475 -65 198 -121 369 -126 380 -4 11 -17
49 -28 85 -25 83 -141 440 -149 460 -3 8 -7 20 -8 26 -2 7 -12 38 -23 70 -73
212 -293 896 -290 904 2 6 109 86 238 180 129 93 246 177 259 187 13 10 92 68
176 128 467 336 585 421 630 455 64 47 198 144 560 406 223 161 314 233 395
314 99 98 220 246 220 268 0 6 4 12 9 14 5 2 32 46 59 98 132 248 186 469 186
755 0 156 -10 238 -46 385 -132 545 -518 973 -1033 1148 -49 17 -101 33 -115
36 -74 17 -171 35 -220 42 -30 4 -664 8 -1409 9 l-1354 0 -28 85 c-33 102
-189 585 -329 1020 -56 173 -149 461 -206 640 -58 179 -114 354 -125 390 -11
36 -24 74 -29 85 -4 11 -28 83 -53 160 -89 281 -207 488 -384 675 -218 231
-557 417 -848 465 -22 3 -62 10 -90 15 -63 10 -383 11 -450 0z"/>
</g>
</svg>
